<svg id="Capa_1" enable-background="new 0 0 512 512" height="512" viewBox="0 0 512 512" width="512" xmlns="http://www.w3.org/2000/svg"><g><g><path d="m189.319 379.916h133.362v96.541h-133.362z" fill="#e4d5f4"/></g><g><path d="m292.734 379.916h29.947v96.541h-29.947z" fill="#ddc8f1"/></g><g><path d="m484.327 408.352h-456.654c-5.523 0-10-4.477-10-10v-274.947c0-5.523 4.477-10 10-10h456.655c5.523 0 10 4.477 10 10v274.947c-.001 5.523-4.478 10-10.001 10z" fill="#bed8fb"/></g><g><path d="m484.327 113.405h-40.58v214.963c0 5.577-4.521 10.099-10.099 10.099h-415.975v59.886c0 5.523 4.477 10 10 10h456.655c5.523 0 10-4.477 10-10v-274.948c-.001-5.523-4.478-10-10.001-10z" fill="#9dc6fb"/></g><g><g><path d="m484.229 426.025h-456.458c-15.313 0-27.771-12.459-27.771-27.772v-274.75c0-15.313 12.458-27.771 27.771-27.771h456.458c15.314 0 27.771 12.458 27.771 27.771v274.75c0 15.313-12.458 27.772-27.771 27.772zm-444.655-56.715h432.852c1.115 0 2.02-.904 2.02-2.02v-228.008c0-1.115-.904-2.02-2.02-2.02h-432.852c-1.115 0-2.02.904-2.02 2.02v228.008c0 1.116.904 2.02 2.02 2.02z" fill="#f9f6f9"/></g></g><g><g><path d="m492.3 96.932c.774 2.553 1.194 5.259 1.194 8.065v287.858c0 8.099-6.565 14.664-14.663 14.664h-469.566c-2.805 0-5.512-.42-8.065-1.194 3.466 11.388 14.064 19.7 26.571 19.7h456.458c15.314 0 27.771-12.458 27.771-27.771v-274.75c0-12.507-8.311-23.106-19.7-26.572z" fill="#f1eaf9"/></g></g><g><path d="m344.71 484.031h-180.188c-4.183 0-7.574-3.391-7.574-7.574s3.391-7.574 7.574-7.574h180.188c4.183 0 7.574 3.391 7.574 7.574s-3.391 7.574-7.574 7.574z" fill="#f1eaf9"/></g><g><ellipse cx="256" cy="395.84" fill="#ddc8f1" rx="9.657" ry="9.657" transform="matrix(.853 -.521 .521 .853 -168.845 191.556)"/></g><g><path d="m416.591 301.039h-321.182c-6.627 0-12-5.373-12-12v-197.581l5-18.774h335.182l5 18.774v197.581c0 6.628-5.373 12-12 12z" fill="#698ed5"/></g><g><path d="m398.738 72.684v187.156c0 6.693-5.426 12.118-12.118 12.118h-303.211v17.081c0 6.627 5.373 12 12 12h321.182c6.627 0 12-5.373 12-12v-197.581l-5-18.774z" fill="#4073c8"/></g><g><path d="m428.591 91.458v-51.37c0-6.693-5.426-12.118-12.118-12.118h-320.946c-6.693 0-12.118 5.426-12.118 12.118v51.37z" fill="#9dc6fb"/></g><g><path d="m416.473 27.969h-17.735v63.489h29.853v-51.37c0-6.693-5.426-12.119-12.118-12.119z" fill="#8eaadf"/></g><g><ellipse cx="119.421" cy="60.723" fill="#e28086" rx="9.657" ry="9.657" transform="matrix(.39 -.921 .921 .39 16.956 147.035)"/></g><g><ellipse cx="150.912" cy="61.037" fill="#f6e266" rx="9.657" ry="9.657" transform="matrix(.39 -.921 .921 .39 35.885 176.227)"/></g><g><ellipse cx="181.16" cy="61.037" fill="#66b49d" rx="9.657" ry="9.657" transform="matrix(.39 -.921 .921 .39 54.344 204.084)"/></g><g><g><g><path d="m169.574 251.568c-.023 0-.044 0-.067 0-4.183-.036-7.545-3.457-7.508-7.639.062-7.238.126-15.404.186-23.862h-45.75c-2.679 0-5.16-1.416-6.522-3.723-1.362-2.308-1.404-5.164-.109-7.51 5.981-10.84 36.119-65.292 42.103-72.634 6.34-7.776 13.003-6.763 15.573-5.968 5.462 1.692 9.352 7.108 9.909 13.799.322 3.857.21 34.404.047 60.889h6.023c4.183 0 7.574 3.391 7.574 7.574s-3.391 7.574-7.574 7.574h-6.124c-.085 11.875-.163 21.175-.188 23.992-.037 4.16-3.421 7.508-7.573 7.508zm-40.282-46.649h32.992c.153-25.138.235-49.576.086-57.355-5.293 7.966-20.837 35.367-33.078 57.355z" fill="#f1eaf9"/></g></g><g><g><path d="m378.913 251.568c-.022 0-.043 0-.066 0-4.183-.036-7.544-3.457-7.509-7.639.063-7.238.127-15.404.186-23.862h-45.75c-2.68 0-5.16-1.416-6.522-3.723-1.363-2.308-1.404-5.164-.11-7.51 5.981-10.84 36.119-65.292 42.104-72.634 6.337-7.776 13.001-6.765 15.572-5.968 5.464 1.692 9.353 7.108 9.91 13.8.322 3.856.21 34.403.047 60.888h6.023c4.183 0 7.574 3.391 7.574 7.574s-3.391 7.574-7.574 7.574h-6.124c-.085 11.875-.164 21.175-.187 23.992-.037 4.16-3.421 7.508-7.574 7.508zm-40.281-46.649h32.992c.153-25.141.235-49.578.087-57.355-5.295 7.966-20.838 35.367-33.079 57.355z" fill="#f1eaf9"/></g></g><g><g><path d="m254.984 256.855c-21.195 0-38.438-17.244-38.438-38.439v-49.359c0-21.195 17.244-38.439 38.438-38.439s38.438 17.244 38.438 38.439v49.359c0 21.196-17.244 38.439-38.438 38.439zm0-111.088c-12.842 0-23.29 10.449-23.29 23.291v49.359c0 12.842 10.448 23.291 23.29 23.291 12.843 0 23.29-10.449 23.29-23.291v-49.359c0-12.843-10.448-23.291-23.29-23.291z" fill="#f1eaf9"/></g></g></g><g><path d="m372.619 330.526c-1.574 0-3.161-.488-4.52-1.501l-31.257-23.291c-3.354-2.499-4.047-7.245-1.547-10.599 2.499-3.354 7.244-4.047 10.599-1.547l31.257 23.291c3.354 2.499 4.047 7.245 1.547 10.599-1.486 1.995-3.768 3.048-6.079 3.048z" fill="#f9f6f9"/></g><g><path d="m299.485 275.325 33.813 58.447c1.439 2.487 4.953 2.691 6.67.387l34.058-45.705c1.717-2.304.517-5.613-2.278-6.281l-65.675-15.689c-5.126-1.223-9.227 4.28-6.588 8.841z" fill="#f1eaf9"/></g><path d="m371.748 282.174-65.675-15.689c-5.125-1.224-9.226 4.279-6.588 8.84l2.92 5.047 44.956 10.739c2.795.668 3.995 3.977 2.278 6.281l-21.047 28.245 4.706 8.135c1.439 2.487 4.953 2.691 6.67.387l34.058-45.705c1.716-2.304.516-5.613-2.278-6.28z" fill="#e4d5f4"/></g></svg>