<svg height="512pt" viewBox="-27 0 511 512" width="512pt" xmlns="http://www.w3.org/2000/svg"><path d="m338.785156 137.144531c-.003906-6.128906-.519531-12.246093-1.535156-18.289062h-35.035156c-2.6875 0-5.238282-1.183594-6.976563-3.234375-1.738281-2.050782-2.480469-4.765625-2.039062-7.414063l8.839843-53.03125c-8.148437-7.222656-17.335937-13.1875-27.253906-17.691406v63.085937c0 15.148438-12.28125 27.429688-27.429687 27.429688h-36.570313c-15.148437 0-27.429687-12.28125-27.429687-27.429688v-63.085937c-9.914063 4.503906-19.101563 10.46875-27.253907 17.691406l8.84375 53.03125c.441407 2.648438-.304687 5.363281-2.039062 7.414063-1.738281 2.050781-4.289062 3.234375-6.976562 3.234375h-35.035157c-1.015625 6.042969-1.53125 12.160156-1.539062 18.289062v9.140625h219.429687zm0 0"/><path d="m366.214844 173.714844c0-5.050782-4.09375-9.144532-9.144532-9.144532h-256c-5.046874 0-9.140624 4.09375-9.140624 9.144532v18.285156h274.285156zm0 0"/><path d="m317.757812 72.328125-4.746093 28.242187h19.503906c-3.511719-10.082031-8.484375-19.597656-14.757813-28.242187zm0 0"/><path d="m210.785156 329.144531h36.570313c5.050781 0 9.144531 4.089844 9.144531 9.140625v109.714844c0 5.050781-4.09375 9.144531-9.144531 9.144531h-36.570313c-5.050781 0-9.140625-4.09375-9.140625-9.144531v-109.714844c0-5.050781 4.089844-9.140625 9.140625-9.140625zm0 0"/><path d="m140.386719 72.328125c-6.273438 8.644531-11.246094 18.160156-14.757813 28.242187h19.5zm0 0"/><path d="m210.785156 109.714844h36.570313c5.050781 0 9.144531-4.09375 9.144531-9.144532v-100.570312h-54.855469v100.570312c0 5.050782 4.089844 9.144532 9.140625 9.144532zm0 0"/><path d="m430.214844 210.285156h-402.285156c-15.148438 0-27.429688 12.28125-27.429688 27.429688v27.429687h457.144531v-27.429687c0-15.148438-12.28125-27.429688-27.429687-27.429688zm-384.730469 30.902344c-.464844 1.109375-1.117187 2.128906-1.921875 3.019531l-1.371094 1.097657c-.507812.34375-1.0625.621093-1.644531.820312-.519531.261719-1.074219.449219-1.648437.550781-.601563.105469-1.214844.164063-1.828126.179688-2.417968-.035157-4.738281-.980469-6.492187-2.648438-.804687-.890625-1.453125-1.910156-1.917969-3.019531-.46875-1.097656-.71875-2.277344-.730468-3.472656-.027344-2.753906 1.203124-5.371094 3.335937-7.113282 2.132813-1.742187 4.941406-2.421874 7.632813-1.847656.574218.101563 1.128906.285156 1.648437.550782.582031.199218 1.136719.476562 1.644531.820312l1.371094 1.097656c.367188.457032.730469.914063 1.097656 1.464844.359375.464844.640625.992188.824219 1.550781.261719.519531.445313 1.074219.546875 1.648438.105469.601562.167969 1.214843.183594 1.828125.03125 1.199218-.21875 2.390625-.730469 3.472656zm36.570313 0c-.464844 1.109375-1.113282 2.128906-1.921876 3.019531l-1.371093 1.097657c-.507813.34375-1.0625.621093-1.644531.820312-.519532.261719-1.074219.449219-1.644532.550781-.605468.105469-1.214844.164063-1.828125.179688-2.421875-.035157-4.738281-.980469-6.492187-2.648438-.808594-.890625-1.457032-1.910156-1.921875-3.019531-.46875-1.097656-.714844-2.277344-.730469-3.472656-.023438-2.753906 1.203125-5.371094 3.335938-7.113282 2.132812-1.742187 4.941406-2.421874 7.636718-1.847656.570313.101563 1.125.285156 1.644532.550782.582031.199218 1.136718.476562 1.644531.820312l1.371093 1.097656c.367188.457032.734376.914063 1.097657 1.464844.363281.464844.640625.992188.824219 1.550781.261718.519531.445312 1.074219.546874 1.648438.105469.601562.167969 1.214843.183594 1.828125.03125 1.199218-.21875 2.390625-.730468 3.472656zm36.570312 0c-.464844 1.109375-1.113281 2.128906-1.917969 3.019531l-1.371093 1.097657c-.511719.34375-1.066407.621093-1.648438.820312-.519531.261719-1.070312.449219-1.644531.550781-.605469.105469-1.214844.164063-1.828125.179688-2.421875-.035157-4.738282-.980469-6.492188-2.648438-.804687-.890625-1.457031-1.910156-1.917968-3.019531-.46875-1.097656-.71875-2.277344-.734376-3.472656-.023437-2.753906 1.203126-5.371094 3.335938-7.113282 2.132812-1.742187 4.941406-2.421874 7.636719-1.847656.574219.101563 1.128906.285156 1.644531.550782.582031.199218 1.136719.476562 1.648438.820312l1.371093 1.097656c.363281.457032.730469.914063 1.097657 1.464844.359374.464844.636718.992188.820312 1.550781.261719.519531.449219 1.074219.550781 1.648438.105469.601562.164063 1.214843.179688 1.828125.035156 1.199218-.21875 2.390625-.730469 3.472656zm0 0"/><path d="m.5 484.570312c0 15.148438 12.28125 27.429688 27.429688 27.429688h402.285156c15.148437 0 27.429687-12.28125 27.429687-27.429688v-201.140624h-457.144531zm293.925781-50.503906 73.140625-118.855468c2.769532-3.992188 8.175782-5.121094 12.3125-2.574219 4.132813 2.550781 5.554688 7.886719 3.230469 12.152343l-64.53125 104.925782h38.492187v-18.285156c0-5.050782 4.09375-9.144532 9.144532-9.144532 5.050781 0 9.140625 4.09375 9.140625 9.144532v18.285156h9.144531c5.050781 0 9.144531 4.09375 9.144531 9.140625 0 5.050781-4.09375 9.144531-9.144531 9.144531h-9.144531v18.285156c0 5.050782-4.089844 9.144532-9.140625 9.144532-5.050782 0-9.144532-4.09375-9.144532-9.144532v-18.285156h-54.855468c-3.3125 0-6.367188-1.789062-7.984375-4.679688-1.617188-2.894531-1.542969-6.433593.195312-9.253906zm-111.070312-95.78125c0-15.148437 12.28125-27.429687 27.429687-27.429687h36.570313c15.148437 0 27.429687 12.28125 27.429687 27.429687v109.714844c0 15.148438-12.28125 27.429688-27.429687 27.429688h-36.570313c-15.148437 0-27.429687-12.28125-27.429687-27.429688zm-117.503907 95.78125 73.144532-118.855468c2.769531-3.992188 8.175781-5.121094 12.308594-2.574219 4.136718 2.550781 5.554687 7.886719 3.234374 12.152343l-64.53125 104.925782h38.492188v-18.285156c0-5.050782 4.09375-9.144532 9.144531-9.144532 5.046875 0 9.140625 4.09375 9.140625 9.144532v18.285156h9.144532c5.046874 0 9.140624 4.09375 9.140624 9.140625 0 5.050781-4.09375 9.144531-9.140624 9.144531h-9.144532v18.285156c0 5.050782-4.09375 9.144532-9.140625 9.144532-5.050781 0-9.144531-4.09375-9.144531-9.144532v-18.285156h-54.855469c-3.3125 0-6.367187-1.789062-7.984375-4.679688-1.617187-2.894531-1.542968-6.433593.191406-9.253906zm0 0"/></svg>